<svg width="40" height="40" viewBox="0 0 40 40" fill="none" xmlns="http://www.w3.org/2000/svg">
  <path d="M22.5345 15.2381L22.5912 15.2949L22.6479 15.2381H22.5345Z" fill="#EF7571"/>
  <path d="M15.752 27.8336L15.7529 27.8345H15.7546L15.7537 27.8336H15.752Z" fill="#EF7571"/>
  <path d="M10.1036 24.8303L14.9783 29.6934H29.7656V16.7393H16.782V19.9573H13.7722V13.7363H32.7754V32.6963H13.7317L5.84719 24.8303H10.1036ZM22.5334 15.2378L22.5903 15.2946L22.6472 15.2378H22.5334Z" fill="#EF7571"/>
  <path d="M22.5345 15.2384L22.5912 15.2952L22.6479 15.2384H22.5345Z" fill="#EF7571"/>
  <path d="M4 4V22.96H23.0032V16.739H19.9934V19.957H7.00978V7.00293H21.8108L23.679 8.86694L24.0364 9.22347L26.6828 11.8644H30.9397L23.0574 4H4Z" fill="#EF7571"/>
  <path d="M12.7521 24.8302V24.8433L15.2775 27.363L15.7487 27.8331H15.752L15.7536 27.8348H27.8923V16.7392H24.8826V24.8318H21.3606V24.8302H12.7521Z" fill="#D30E0D"/>
  <path d="M20.3968 8.8746H20.4128L20.4048 8.86658L20.3968 8.8746Z" fill="#D30E0D"/>
  <path d="M30.56 32.6964L33.8718 36.0002L36 33.8768L32.7757 30.6599V32.6964H30.56Z" fill="#343434"/>
  <path d="M8.88929 8.87451V19.957H11.8991V11.8774H21.4981V11.8643H24.0361L21.0395 8.87451H8.88929Z" fill="#D30E0D"/>
  <path d="M21.4981 11.8643H24.0361V11.8774H21.4981V11.8643Z" fill="#D30E0D"/>
  <path d="M15.4278 8.86658V8.87422H21.0364L21.0287 8.86658H15.4278Z" fill="#D30E0D"/>
</svg>
